# xmcd CD database file
#
# Track frame offsets:
#	151
#	23512
#	46877
#	67306
#	85873
#	105402
#	125453
#	145940
#	167195
#	187762
#	208785
#	227130
#	247659
#	271110
#	287605
#	308284
#
# Disc length: 4390 seconds
#
# Revision: 0
# Processed by: cddbd v1.5.2PL0 Copyright (c) Steve Scherf et al.
# Submitted via: CdAid (MTCDDB.DLL V2003.12.21)
#
DISCID=cd112410
DTITLE=Various Artist - Na Onda do Rap 2
DYEAR=2005
DGENRE=Rap
TTITLE0=Born Jamericans - Wherever We Go
TTITLE1=Bone CD II - Thug Luu (Featuring 2 Pac)
TTITLE2=Wyclef Jean - Guantanamera
TTITLE3=Heavy D - Big Daddy
TTITLE4=SWV - Gettin' Funky
TTITLE5=Presteege - Wainting - Anticipating
TTITLE6=Tracey Lee - Give It Up Baby
TTITLE7=Bone - Handle The Vibe
TTITLE8=Creation - Say What You Mean
TTITLE9=Heavy D - You Can Get It
TTITLE10=Adriana Evans - Seein Is Believing
TTITLE11=Born Jamericans - Superstar
TTITLE12=2 Pac - Me And My Girl
TTITLE13=Lost Boys - Get Up 98 BPM
TTITLE14=A+ - Enter Hempstead
TTITLE15=Bone - Ready War
EXTD=ID3G:  15 YEAR: 2005
EXTT0=
EXTT1=
EXTT2=
EXTT3=
EXTT4=
EXTT5=
EXTT6=
EXTT7=
EXTT8=
EXTT9=
EXTT10=
EXTT11=
EXTT12=
EXTT13=
EXTT14=
EXTT15=
PLAYORDER=
